<?xml version="1.0" encoding="utf-8"?>
<!-- Generator: Adobe Illustrator 19.2.1, SVG Export Plug-In . SVG Version: 6.00 Build 0)  -->
<svg version="1.1" id="圖層_1" xmlns="http://www.w3.org/2000/svg" xmlns:xlink="http://www.w3.org/1999/xlink" x="0px" y="0px"
	 viewBox="0 0 180 40" style="enable-background:new 0 0 180 40;" xml:space="preserve">
<style type="text/css">
	.st0{fill:#555555;}
</style>
<rect x="89.2" y="18.3" class="st0" width="1.5" height="21.7"/>
<rect x="-0.8" y="24.7" class="st0" width="1.6" height="15.3"/>
<rect x="5.2" y="30.9" class="st0" width="0.9" height="9.1"/>
<rect x="10.8" y="30.9" class="st0" width="0.9" height="9.1"/>
<rect x="16.4" y="30.9" class="st0" width="0.9" height="9.1"/>
<rect x="22.1" y="30.9" class="st0" width="0.9" height="9.1"/>
<rect x="27.7" y="30.9" class="st0" width="0.9" height="9.1"/>
<rect x="33.3" y="30.9" class="st0" width="0.9" height="9.1"/>
<rect x="38.9" y="30.9" class="st0" width="0.9" height="9.1"/>
<rect x="44.6" y="30.9" class="st0" width="0.9" height="9.1"/>
<rect x="50.2" y="30.9" class="st0" width="0.9" height="9.1"/>
<rect x="55.8" y="30.9" class="st0" width="0.9" height="9.1"/>
<rect x="61.4" y="30.9" class="st0" width="0.9" height="9.1"/>
<rect x="67.1" y="30.9" class="st0" width="0.9" height="9.1"/>
<rect x="72.7" y="30.9" class="st0" width="0.9" height="9.1"/>
<rect x="78.3" y="30.9" class="st0" width="0.9" height="9.1"/>
<rect x="83.9" y="30.9" class="st0" width="0.9" height="9.1"/>
<rect x="95.2" y="30.9" class="st0" width="0.9" height="9.1"/>
<rect x="100.8" y="30.9" class="st0" width="0.9" height="9.1"/>
<rect x="106.4" y="30.9" class="st0" width="0.9" height="9.1"/>
<rect x="112.1" y="30.9" class="st0" width="0.9" height="9.1"/>
<rect x="117.7" y="30.9" class="st0" width="0.9" height="9.1"/>
<rect x="123.3" y="30.9" class="st0" width="0.9" height="9.1"/>
<rect x="128.9" y="30.9" class="st0" width="0.9" height="9.1"/>
<rect x="134.6" y="30.9" class="st0" width="0.9" height="9.1"/>
<rect x="140.2" y="30.9" class="st0" width="0.9" height="9.1"/>
<rect x="145.8" y="30.9" class="st0" width="0.9" height="9.1"/>
<rect x="151.4" y="30.9" class="st0" width="0.9" height="9.1"/>
<rect x="157.1" y="30.9" class="st0" width="0.9" height="9.1"/>
<rect x="162.7" y="30.9" class="st0" width="0.9" height="9.1"/>
<rect x="168.3" y="30.9" class="st0" width="0.9" height="9.1"/>
<rect x="173.9" y="30.9" class="st0" width="0.9" height="9.1"/>
<rect x="179.2" y="24.7" class="st0" width="1.6" height="15.3"/>
</svg>
