<?xml version="1.0" encoding="utf-8"?>
<!-- Generator: Adobe Illustrator 19.2.1, SVG Export Plug-In . SVG Version: 6.00 Build 0)  -->
<svg version="1.1" id="Capa_1" xmlns="http://www.w3.org/2000/svg" xmlns:xlink="http://www.w3.org/1999/xlink" x="0px" y="0px"
	 viewBox="0 0 512 512" style="enable-background:new 0 0 512 512;" xml:space="preserve">
<style type="text/css">
	.st0{fill:#FFFFFF;}
</style>
<path class="st0" d="M0,256c0,2.9,1.4,5.7,3.8,7.3L246.3,434c1.5,1.1,3.4,1.6,5.2,1.6c1.4,0,2.8-0.3,4.1-1c3-1.5,4.8-4.6,4.8-8V267
	l237.4,166.9c1.5,1.1,3.4,1.6,5.2,1.6c1.4,0,2.8-0.3,4.1-1c3-1.5,4.8-4.6,4.8-8V85.5c0-3.4-1.9-6.4-4.8-8c-3-1.5-6.6-1.3-9.3,0.6
	L260.5,245V85.3c0-3.4-1.9-6.4-4.8-8c-3-1.5-6.6-1.3-9.3,0.6L3.8,248.7C1.4,250.3,0,253.1,0,256z"/>
</svg>
