<?xml version="1.0" encoding="utf-8"?>
<!-- Generator: Adobe Illustrator 19.2.1, SVG Export Plug-In . SVG Version: 6.00 Build 0)  -->
<svg version="1.1" id="Capa_1" xmlns="http://www.w3.org/2000/svg" xmlns:xlink="http://www.w3.org/1999/xlink" x="0px" y="0px"
	 viewBox="0 0 512 512" style="enable-background:new 0 0 512 512;" xml:space="preserve">
<style type="text/css">
	.st0{fill:#FFFFFF;}
</style>
<g>
	<path class="st0" d="M237.6,237.6c-4.9,4.9-7.6,11.5-7.6,18.4c0,7,2.7,13.5,7.6,18.4c4.9,4.9,11.5,7.6,18.4,7.6
		c7,0,13.5-2.7,18.4-7.6c4.9-4.9,7.6-11.5,7.6-18.4c0-7-2.7-13.5-7.6-18.4C264.6,227.7,247.4,227.7,237.6,237.6z"/>
	<path class="st0" d="M389.6,122.4C353.9,86.7,306.5,67,256,67s-97.9,19.7-133.6,55.3c-73.7,73.7-73.7,193.6,0,267.2
		C158.1,425.3,205.5,445,256,445s97.9-19.7,133.6-55.3C463.3,315.9,463.3,196.1,389.6,122.4z M385,385
		c-12.6,12.6-26.6,22.9-41.5,31.1l-50-91.5c-11.4,6.2-24.2,9.6-37.5,9.6c-20.9,0-40.5-8.1-55.3-22.9c-25.1-25.1-29.5-63.1-13.3-92.8
		l-91.5-50c8.1-14.9,18.5-28.9,31.1-41.5s26.6-22.9,41.5-31.1l50,91.5c11.4-6.2,24.2-9.6,37.5-9.6c20.9,0,40.5,8.1,55.3,22.9
		c25.1,25.1,29.5,63.1,13.3,92.8l91.5,50C407.9,358.4,397.6,372.4,385,385z"/>
</g>
</svg>
