<?xml version="1.0" encoding="utf-8"?>
<!-- Generator: Adobe Illustrator 19.2.1, SVG Export Plug-In . SVG Version: 6.00 Build 0)  -->
<svg version="1.1" id="Capa_1" xmlns="http://www.w3.org/2000/svg" xmlns:xlink="http://www.w3.org/1999/xlink" x="0px" y="0px"
	 viewBox="0 0 512 512" style="enable-background:new 0 0 512 512;" xml:space="preserve">
<style type="text/css">
	.st0{fill:#E60E41;}
</style>
<g>
	<g>
		<path class="st0" d="M507.8,88.1l-117-78.7c-6.4-4.3-15,0.3-15,7.9v42.6H42.5c-20,0-36.2,16.2-36.2,36.2v192.3h72.4v-156h297V175
			c0,7.7,8.6,12.2,15,7.9l117-78.8C513.4,100.4,513.4,92,507.8,88.1z"/>
		<path class="st0" d="M433.3,379.5h-297V337c0-7.7-8.6-12.2-15-7.9L4.2,407.8c-5.6,3.8-5.6,12.1,0,16l117,78.8
			c6.4,4.3,15-0.3,15-7.9V452h333.2c20,0,36.2-16.2,36.2-36.2V223.5h-72.4L433.3,379.5L433.3,379.5L433.3,379.5z"/>
	</g>
</g>
</svg>
