<?xml version="1.0" encoding="utf-8"?>
<!-- Generator: Adobe Illustrator 19.2.1, SVG Export Plug-In . SVG Version: 6.00 Build 0)  -->
<svg version="1.1" id="Capa_1" xmlns="http://www.w3.org/2000/svg" xmlns:xlink="http://www.w3.org/1999/xlink" x="0px" y="0px"
	 viewBox="0 0 512 512" style="enable-background:new 0 0 512 512;" xml:space="preserve">
<style type="text/css">
	.st0{fill:#E60E41;}
	.st1{fill:#AAAAAA;}
</style>
<rect x="228.9" y="14.2" transform="matrix(0.9845 0.1752 -0.1752 0.9845 48.8171 -40.896)" class="st0" width="54.3" height="483.6"/>
<g>
	<path class="st1" d="M168.2,378.5h-32.9V336c0-7.7-8.6-12.2-15-7.9L3.2,406.8c-5.6,3.8-5.6,12.1,0,16l117,78.8
		c6.4,4.3,15-0.3,15-7.9V451h20.1L168.2,378.5z"/>
	<path class="st1" d="M432.2,222.5v156h-132L287.3,451h181.1c20,0,36.2-16.2,36.2-36.2V222.5H432.2z"/>
</g>
<g>
	<path class="st1" d="M225.1,58.9H41.5c-20,0-36.2,16.2-36.2,36.2v192.3h72.4v-156h134.5L225.1,58.9z"/>
	<path class="st1" d="M506.8,87.1l-117-78.7c-6.4-4.3-15,0.3-15,7.9v42.6h-17.7l-12.9,72.5h30.5V174c0,7.7,8.6,12.2,15,7.9l117-78.8
		C512.4,99.4,512.4,91,506.8,87.1z"/>
</g>
</svg>
