<?xml version="1.0" encoding="utf-8"?>
<!-- Generator: Adobe Illustrator 19.2.1, SVG Export Plug-In . SVG Version: 6.00 Build 0)  -->
<svg version="1.1" id="Capa_1" xmlns="http://www.w3.org/2000/svg" xmlns:xlink="http://www.w3.org/1999/xlink" x="0px" y="0px"
	 viewBox="0 0 512 512" style="enable-background:new 0 0 512 512;" xml:space="preserve">
<style type="text/css">
	.st0{fill:#AAAAAA;}
</style>
<g>
	<g>
		<path class="st0" d="M259.2,271.8c9.7-22.9,17.8-40.8,24.6-53.9c5-9.7,9.8-17.8,14.2-24.4c4.4-6.6,9.8-13.1,16.1-19.4
			c6.3-6.3,13.5-11,21.7-14.2c8.2-3.1,17.3-4.7,27.4-4.7h27.7v60.5c0,2.7,1,5.1,3,7.1c2,2,4.4,3,7.1,3c2.9,0,5.4-0.9,7.2-2.8
			l100.8-100.8c1.9-1.9,2.8-4.3,2.8-7.2s-0.9-5.4-2.8-7.3L408.5,7.2c-2.5-2.1-5-3.1-7.6-3.1c-2.9,0-5.4,0.9-7.2,2.8
			c-1.9,1.9-2.8,4.3-2.8,7.2v60.5h-27.7c-14.3,0-27.7,1.7-40.3,5.2c-12.6,3.5-23.8,7.9-33.5,13.2c-9.8,5.4-19.2,12.5-28.4,21.6
			c-9.1,9-16.9,17.7-23.3,26.1c-6.4,8.4-13.1,18.9-20.2,31.5c-7,12.6-12.7,23.6-17,33.1c-4.3,9.5-9.5,21.1-15.6,35
			c-9.7,22.9-17.9,40.8-24.6,53.9c-5,9.7-9.8,17.8-14.2,24.4c-4.4,6.6-9.8,13.1-16.1,19.4c-6.3,6.3-13.5,11-21.7,14.2
			c-8.2,3.1-17.3,4.7-27.4,4.7H10.3c-2.9,0-5.4,0.9-7.2,2.8c-1.9,1.9-2.8,4.3-2.8,7.2v60.5c0,2.9,1,5.4,2.8,7.2
			c1.9,1.9,4.3,2.8,7.2,2.8h70.6c14.3,0,27.7-1.7,40.3-5.2c12.6-3.5,23.8-7.9,33.5-13.2c9.8-5.4,19.2-12.6,28.4-21.6
			c9.1-9,16.9-17.7,23.3-26.1c6.4-8.4,13.1-18.9,20.2-31.5c7-12.6,12.7-23.6,17-33.1C247.9,297.3,253.1,285.6,259.2,271.8z"/>
		<path class="st0" d="M9.1,164.6h72.5c8.4,0,16.1,1.4,23.3,4.1s13.1,6.1,18,10c4.9,3.9,9.7,9.3,14.6,16.1
			c4.9,6.9,8.7,12.9,11.6,18.1c2.9,5.2,6.4,12.1,10.6,20.7c14.7-34.5,27.7-60.5,39.1-78c-30.5-42.9-69.5-64.3-117.1-64.3H9.1
			c-2.7,0-4.9,0.9-6.6,2.6C0.9,95.7,0,97.9,0,100.6v54.9c0,2.7,0.9,4.9,2.6,6.6C4.3,163.7,6.5,164.6,9.1,164.6z"/>
		<path class="st0" d="M408.5,289.4c-2.5-2.1-5-3.1-7.6-3.1c-2.9,0-5.4,0.9-7.2,2.8c-1.9,1.9-2.8,4.3-2.8,7.2v60.5h-27.7
			c-9.2,0-17.8-1.5-25.7-4.6c-7.9-3-14.5-6.7-19.8-11c-5.3-4.3-10.7-10.2-16.1-17.8c-5.4-7.6-9.6-14.2-12.8-20
			c-3.1-5.8-7-13.4-11.7-22.8c-16.2,37.8-30.4,66.5-42.8,86c5.7,8.2,11.5,15.5,17.6,21.9c6.1,6.4,11.9,12,17.3,16.9
			c5.5,4.8,11.7,9,18.6,12.6c6.9,3.6,13,6.6,18.3,9c5.3,2.4,11.9,4.4,19.8,5.8c8,1.5,14.7,2.6,20.2,3.3c5.5,0.7,12.9,1.3,22.4,1.6
			c9.4,0.3-4.2,0.4,1.6,0.3c5.9-0.1,1.6-0.2,12.7-0.3c11.1-0.1,1.3-0.2,8-0.2v60.5c0,2.7,1,5.1,3,7.1c2,2,4.4,3,7.1,3
			c2.9,0,5.4-0.9,7.2-2.8l100.8-100.8c1.9-1.9,2.8-4.3,2.8-7.2c0-2.9-0.9-5.4-2.8-7.2L408.5,289.4z"/>
	</g>
</g>
</svg>
