<?xml version="1.0" encoding="utf-8"?>
<!-- Generator: Adobe Illustrator 19.2.1, SVG Export Plug-In . SVG Version: 6.00 Build 0)  -->
<svg version="1.1" id="Capa_1" xmlns="http://www.w3.org/2000/svg" xmlns:xlink="http://www.w3.org/1999/xlink" x="0px" y="0px"
	 viewBox="0 0 512 512" style="enable-background:new 0 0 512 512;" xml:space="preserve">
<style type="text/css">
	.st0{fill:#E60E41;}
</style>
<path class="st0" d="M507.8,88.1l-117-78.7c-6.4-4.3-15,0.3-15,7.9v42.6H42.5c-20,0-36.2,16.2-36.2,36.2v192.3h72.4v-156h297V175
	c0,7.7,8.6,12.2,15,7.9l117-78.8C513.4,100.4,513.4,92,507.8,88.1z"/>
<g>
	<path class="st0" d="M180.5,379.5h-44.2V337c0-7.7-8.6-12.2-15-7.9L4.2,407.8c-5.6,3.8-5.6,12.1,0,16l117,78.8
		c6.4,4.3,15-0.3,15-7.9V452h65.3C189.9,430.1,182.5,405.5,180.5,379.5z"/>
</g>
<path class="st0" d="M366.4,225.9c-76.8,0-139.1,62.3-139.1,139.1s62.3,139.1,139.1,139.1S505.5,441.8,505.5,365
	S443.3,225.9,366.4,225.9z M395.6,464.2h-48.4V360.1c0-15-0.4-24.1-1.1-27.1s-2.7-5.3-5.9-6.9c-3.2-1.6-10.5-2.3-21.6-2.3h-4.8
	v-22.6c23.4-5,41.2-15.4,53.4-31.1h28.5v194.1H395.6z"/>
</svg>
